<?xml version="1.0" encoding="utf-8"?>
<!-- Generator: Adobe Illustrator 19.2.1, SVG Export Plug-In . SVG Version: 6.00 Build 0)  -->
<svg version="1.1" id="Layer_1" xmlns="http://www.w3.org/2000/svg" xmlns:xlink="http://www.w3.org/1999/xlink" x="0px" y="0px"
	 viewBox="0 0 266 276.5" style="enable-background:new 0 0 266 276.5;" xml:space="preserve">
<style type="text/css">
	.st0{fill:#111718;}
	.st1{fill:#FFFFFF;}
	.st2{fill:#C1B697;}
</style>
<rect class="st0" width="266" height="273.1"/>
<path class="st1" d="M101.2,158.2c0,1.4-1.1,2.5-2.5,2.5c-1.4,0-2.5-1.1-2.5-2.5c0-1.4,1.1-2.5,2.5-2.5
	C100.1,155.7,101.2,156.8,101.2,158.2"/>
<path class="st1" d="M164.4,39.5c0,2-1.6,3.5-3.5,3.5c-2,0-3.5-1.6-3.5-3.5c0-1.9,1.6-3.5,3.5-3.5C162.8,36,164.4,37.6,164.4,39.5"
	/>
<path class="st1" d="M246.6,153.9c-0.3,1.5-1.7,2.4-3.2,2.1c-1.5-0.3-2.4-1.7-2.1-3.2c0.3-1.5,1.7-2.4,3.2-2.1
	C245.9,151,246.9,152.4,246.6,153.9"/>
<path class="st1" d="M250.6,109.8c-0.3,1.5-1.7,2.4-3.2,2.1c-1.5-0.3-2.4-1.7-2.1-3.2c0.3-1.5,1.7-2.4,3.2-2.1
	C249.9,106.9,250.8,108.4,250.6,109.8"/>
<path class="st1" d="M183.2,115.8c0,2-1.5,3.6-3.5,3.6c-1.9,0-3.6-1.5-3.6-3.5c0-2,1.5-3.6,3.5-3.6
	C181.6,112.3,183.2,113.9,183.2,115.8"/>
<path class="st1" d="M100.6,42.1c0,1.7-1.4,3.2-3.2,3.2c-1.7,0-3.2-1.4-3.2-3.2c0-1.7,1.4-3.2,3.2-3.2
	C99.2,38.9,100.6,40.4,100.6,42.1"/>
<path class="st1" d="M112.2,160c0,1.4-1.1,2.5-2.5,2.5c-1.4,0-2.5-1.1-2.5-2.5c0-1.4,1.1-2.5,2.5-2.5
	C111,157.5,112.2,158.6,112.2,160"/>
<path class="st2" d="M221.6,150.1c-1.4,52-44.6,93.1-96.7,91.8c-52-1.4-93.1-44.7-91.7-96.7c1.4-52,44.6-93.1,96.7-91.7
	C181.9,54.8,222.9,98.1,221.6,150.1"/>
<path class="st1" d="M124.6,155.7c-0.1,9.4,0,25.6,6.3,40.3c0,0,15.7,39.8,35,35.4c0,0,1.6-3.5-5.9-6.7c-7.1-3-28.2-12.7-26.5-57.3"
	/>
<path class="st1" d="M91,182.1c0.5-0.8,30.6-67.2,46.3-7.6l-9.6,0.9c-1.7-5.7-3.1-7.6-3.7-7.8c-1.7-0.5-9.7,13.5-9.7,13.5L91,182.1z
	"/>
<path class="st1" d="M201.1,176.9c0.1,5.6-4.4,10.2-9.9,10.3c-5.6,0.1-10.2-4.3-10.3-9.9c-0.1-5.6,4.3-10.2,9.9-10.3
	C196.4,166.9,201,171.3,201.1,176.9"/>
<path class="st1" d="M194.8,161.8c0,0.5-0.3,1-0.7,1.3c-0.2,0.2-0.5,0.2-0.8,0.2c-0.8,0-1.5-0.7-1.5-1.5c0-0.8,0.6-1.5,1.5-1.5
	C194.1,160.3,194.8,161,194.8,161.8"/>
<path class="st1" d="M198.8,163c-0.1,0.5-0.5,0.9-0.9,1.1c-0.3,0.1-0.5,0.1-0.8,0.1c-0.8-0.2-1.3-1-1.2-1.8c0.2-0.8,1-1.3,1.8-1.2
	C198.5,161.4,199,162.2,198.8,163"/>
<path class="st1" d="M202.5,165.9c-0.3,0.5-0.7,0.7-1.2,0.8c-0.3,0-0.6-0.1-0.8-0.2c-0.7-0.4-1-1.3-0.6-2.1c0.4-0.7,1.3-1,2.1-0.6
	C202.6,164.3,202.9,165.2,202.5,165.9"/>
<path class="st1" d="M205.1,169.8c-0.4,0.3-0.9,0.4-1.4,0.3c-0.3-0.1-0.5-0.2-0.7-0.5c-0.5-0.6-0.5-1.6,0.2-2.1
	c0.6-0.5,1.6-0.5,2.1,0.2C205.8,168.3,205.8,169.2,205.1,169.8"/>
<path class="st1" d="M206,175.2c-0.5,0.2-1,0.1-1.4-0.1c-0.2-0.2-0.4-0.4-0.5-0.6c-0.3-0.8,0-1.6,0.8-2c0.8-0.3,1.6,0,2,0.8
	C207.1,174,206.7,174.9,206,175.2"/>
<path class="st1" d="M206.3,179.9c-0.5,0.1-1-0.1-1.4-0.5c-0.2-0.2-0.3-0.5-0.3-0.8c-0.1-0.8,0.4-1.6,1.3-1.7
	c0.8-0.1,1.6,0.4,1.7,1.3C207.7,179,207.2,179.8,206.3,179.9"/>
<path class="st1" d="M205.2,183.1c-0.5,0-1-0.3-1.3-0.7c-0.1-0.2-0.2-0.5-0.2-0.8c0-0.8,0.7-1.5,1.5-1.5c0.8,0,1.5,0.7,1.5,1.5
	C206.7,182.5,206,183.1,205.2,183.1"/>
<path class="st1" d="M203.9,187.1c-0.5-0.1-0.9-0.5-1.1-1c-0.1-0.3-0.1-0.6-0.1-0.8c0.2-0.8,1-1.3,1.8-1.1c0.8,0.2,1.3,1,1.1,1.8
	C205.5,186.8,204.7,187.3,203.9,187.1"/>
<path class="st1" d="M201.8,189.6c-0.5-0.3-0.7-0.7-0.8-1.2c0-0.3,0.1-0.6,0.2-0.8c0.4-0.7,1.3-1,2-0.6c0.7,0.4,1,1.3,0.6,2
	C203.5,189.7,202.6,190,201.8,189.6"/>
<path class="st1" d="M198,192.2c-0.3-0.4-0.4-1-0.3-1.4c0.1-0.3,0.2-0.5,0.5-0.7c0.6-0.5,1.6-0.5,2.1,0.2c0.5,0.6,0.5,1.6-0.2,2.1
	C199.5,192.9,198.5,192.8,198,192.2"/>
<path class="st1" d="M193.8,193.7c-0.2-0.5-0.1-1,0.1-1.5c0.2-0.2,0.4-0.4,0.6-0.5c0.8-0.3,1.6,0,2,0.8c0.3,0.8,0,1.6-0.8,2
	C195,194.8,194.2,194.4,193.8,193.7"/>
<path class="st1" d="M189.1,194.1c-0.1-0.5,0.1-1,0.5-1.4c0.2-0.2,0.5-0.3,0.8-0.4c0.8-0.1,1.6,0.4,1.7,1.2c0.1,0.8-0.4,1.6-1.2,1.7
	C190,195.5,189.3,194.9,189.1,194.1"/>
<path class="st1" d="M184.2,192.2c0.1-0.5,0.4-1,0.8-1.2c0.2-0.1,0.5-0.2,0.8-0.1c0.8,0.1,1.4,0.8,1.3,1.6c-0.1,0.8-0.8,1.4-1.7,1.3
	C184.7,193.7,184.1,193,184.2,192.2"/>
<path class="st1" d="M180.4,190.5c0.2-0.5,0.6-0.9,1.1-1c0.3-0.1,0.6-0.1,0.8,0c0.8,0.3,1.2,1.1,0.9,1.9c-0.3,0.8-1.1,1.2-1.9,0.9
	C180.5,192.1,180.1,191.3,180.4,190.5"/>
<path class="st1" d="M177.1,187.1c0.3-0.4,0.8-0.6,1.3-0.6c0.3,0,0.5,0.1,0.8,0.3c0.7,0.5,0.8,1.4,0.3,2.1c-0.5,0.7-1.4,0.8-2.1,0.3
	C176.7,188.7,176.6,187.8,177.1,187.1"/>
<path class="st1" d="M174.9,183c0.5-0.3,1-0.3,1.5-0.1c0.2,0.1,0.5,0.3,0.6,0.5c0.4,0.7,0.2,1.6-0.4,2.1c-0.7,0.5-1.6,0.3-2.1-0.4
	C174.1,184.4,174.2,183.4,174.9,183"/>
<path class="st1" d="M174,178.6c0.5-0.1,1,0,1.4,0.3c0.2,0.2,0.4,0.4,0.4,0.7c0.2,0.8-0.2,1.6-1,1.9c-0.8,0.2-1.6-0.2-1.9-1
	C172.7,179.7,173.2,178.9,174,178.6"/>
<path class="st1" d="M174.1,173.9c0.5,0,1,0.2,1.3,0.7c0.2,0.2,0.3,0.5,0.3,0.8c0,0.8-0.6,1.5-1.4,1.6c-0.8,0-1.5-0.6-1.6-1.4
	C172.6,174.7,173.3,174,174.1,173.9"/>
<path class="st1" d="M176.2,169.2c0.5,0.1,0.9,0.5,1,1c0.1,0.3,0.1,0.5,0,0.8c-0.2,0.8-1,1.3-1.8,1.1c-0.8-0.2-1.3-1-1.1-1.8
	C174.6,169.5,175.5,169,176.2,169.2"/>
<path class="st1" d="M178.5,165.7c0.5,0.3,0.8,0.7,0.8,1.2c0,0.3,0,0.6-0.2,0.8c-0.4,0.7-1.3,1-2,0.6c-0.7-0.4-1-1.3-0.6-2
	C176.9,165.6,177.8,165.3,178.5,165.7"/>
<path class="st1" d="M182.3,162.9c0.4,0.4,0.5,0.9,0.4,1.4c-0.1,0.3-0.2,0.5-0.4,0.7c-0.6,0.6-1.5,0.6-2.1,0c-0.6-0.6-0.6-1.5,0-2.1
	C180.8,162.3,181.7,162.3,182.3,162.9"/>
<path class="st1" d="M186.7,161.5c0.2,0.5,0.2,1-0.1,1.4c-0.1,0.2-0.4,0.4-0.6,0.5c-0.8,0.4-1.6,0-2-0.7c-0.3-0.8,0-1.6,0.7-2
	C185.5,160.4,186.4,160.7,186.7,161.5"/>
<path class="st1" d="M191.2,161.1c0.1,0.5-0.1,1-0.5,1.4c-0.2,0.2-0.5,0.3-0.8,0.3c-0.8,0.1-1.6-0.4-1.7-1.3
	c-0.1-0.8,0.5-1.6,1.3-1.7C190.3,159.8,191.1,160.3,191.2,161.1"/>
<path class="st1" d="M195.8,162c-0.1,0.5-0.4,1-0.8,1.2c-0.3,0.1-0.5,0.2-0.8,0.1c-0.8-0.1-1.4-0.8-1.3-1.7c0.1-0.8,0.8-1.4,1.7-1.3
	C195.3,160.4,195.9,161.2,195.8,162"/>
<path class="st1" d="M101.2,158.2c0,1.4-1.1,2.5-2.5,2.5c-1.4,0-2.5-1.1-2.5-2.5c0-1.4,1.1-2.5,2.5-2.5
	C100.1,155.7,101.2,156.8,101.2,158.2"/>
<path class="st1" d="M242.5,180.1c-0.2,1.1-1.3,1.8-2.4,1.6c-1.1-0.2-1.8-1.3-1.6-2.4c0.2-1.1,1.3-1.8,2.4-1.6
	C242,177.9,242.7,179,242.5,180.1"/>
<path class="st1" d="M261.6,143.6c-0.2,1.1-1.3,1.8-2.4,1.6c-1.1-0.2-1.8-1.3-1.6-2.4c0.2-1.1,1.3-1.8,2.4-1.6
	C261.1,141.4,261.8,142.5,261.6,143.6"/>
<path class="st1" d="M256.9,185.3c-0.2,1.1-1.3,1.8-2.4,1.6c-1.1-0.2-1.8-1.3-1.6-2.4c0.2-1.1,1.3-1.8,2.4-1.6
	C256.4,183.2,257.1,184.2,256.9,185.3"/>
<path class="st1" d="M224.7,189.9c-0.2,1.1-1.3,1.8-2.4,1.6c-1.1-0.2-1.8-1.3-1.6-2.4c0.2-1.1,1.3-1.8,2.4-1.6
	C224.2,187.8,224.9,188.8,224.7,189.9"/>
<path class="st1" d="M226.1,177.4c-0.2,1.2-1.4,1.9-2.5,1.7c-1.2-0.2-1.9-1.4-1.7-2.5c0.2-1.2,1.4-1.9,2.5-1.7
	C225.6,175.2,226.3,176.3,226.1,177.4"/>
<path class="st1" d="M255.3,218.9c-0.2,1.1-1.3,1.8-2.4,1.6c-1.1-0.2-1.8-1.3-1.6-2.4c0.2-1.1,1.3-1.8,2.4-1.6
	C254.8,216.8,255.5,217.8,255.3,218.9"/>
<path class="st1" d="M238.9,205.8c-0.2,1.1-1.3,1.8-2.4,1.6c-1.1-0.2-1.8-1.3-1.6-2.4c0.2-1.1,1.3-1.8,2.4-1.6
	C238.4,203.6,239.1,204.7,238.9,205.8"/>
<path class="st1" d="M248,26c0-1.6,1.3-2.8,2.8-2.8c1.6,0,2.8,1.3,2.8,2.8c0,1.6-1.3,2.8-2.8,2.8C249.3,28.8,248,27.6,248,26"/>
<path class="st1" d="M259.1,234c0.2-1,1.2-1.7,2.2-1.5c1,0.2,1.7,1.2,1.5,2.2c-0.2,1-1.2,1.7-2.2,1.5C259.6,236,258.9,235,259.1,234
	"/>
<path class="st1" d="M183.2,115.8c0,2-1.5,3.6-3.5,3.6c-1.9,0-3.6-1.5-3.6-3.5c0-2,1.5-3.6,3.5-3.6
	C181.6,112.3,183.2,113.9,183.2,115.8"/>
<path class="st1" d="M260.2,203.7c-0.2,1-1.1,1.6-2.1,1.4c-1-0.2-1.6-1.1-1.4-2.1c0.2-1,1.1-1.6,2.1-1.4
	C259.7,201.7,260.4,202.7,260.2,203.7"/>
<path class="st1" d="M112.2,160c0,1.4-1.1,2.5-2.5,2.5c-1.4,0-2.5-1.1-2.5-2.5c0-1.4,1.1-2.5,2.5-2.5
	C111,157.5,112.2,158.6,112.2,160"/>
<path class="st2" d="M221.6,150.1c-1.4,52-44.6,93.1-96.7,91.8c-52-1.4-93.1-44.7-91.7-96.7c1.4-52,44.6-93.1,96.7-91.7
	C181.9,54.8,222.9,98.1,221.6,150.1"/>
<path class="st1" d="M176.2,167.8c-10-7.2-54.3-36.9-54.3-36.9l-21.1-15.2l-1.1,0.7l20.2,15.3c-2.7-0.3-8.3,2.6-17.1,5.1
	c-8.8,2.4-12.5-2.1-18.3-11.7c-5.7-9.6,2-9.9,2-9.9c10.9,4.4,13.6-0.4,13.6-0.4c-14.9-28.2-24.6-25-24.6-25c-4.6,1.2-7.4-1-7.4-1
	s-4.2-5.1-4-11.7c0.1-6.6-18.2-38.5-26-47.5c0,0-12.7-17-14.5-16.3c-1.8,0.7-2.7,0.2,0.8,9c3.6,8.8,9.2,21,15.8,29.7
	c6.6,8.8,21.6,28.1,23.2,32.5c1.6,4.5,2.2,6.1-1.8,3.5c-4.1-2.6-10.2-22.9-31.2-41.9c-21-19-23.6-17.9-23.7-17
	c-0.1,1-2.3,14.4,19,32.4c0,0,32.8,20,36.3,30.3c0,0,5.2,3.7-5.8,12.6c-11.1,8.9-28.3,53.2-12.2,87.2c16.1,34,36.3,40.7,40.5,47.6
	c1.9,3.2,6.6,17.4-1.3,21c0,0-1,6.2,5.6,4c6.6-2.2,17.9-16.8-3.4-28.5c0,0-7.4-6.1,3.2,0.3c10.5,6.4,37.1-3.4,40.3-43.6
	c0,0,0.5-4.4,1.9-3.3c1.4,1.1-5.1,25.8,2.2,48.5c0,0,12,41,31.6,38.4c0,0,1.9-3.3-5.2-7.2c-7.2-3.9-29-16.4-20-66.7
	c9.1-50.7-28.3-30-29-29.5l-0.2,0.1c0,0-11.2,10.6-25.1,7.6c-14.6-3.1-9.3-29.3,4.6-25.9c0,0,15,0.2,24-12.7c0,0,4.5-6.7,13.5-4.6
	c0,0,29.9,18,47,30.7"/>
<path class="st1" d="M124.4,155.6c-0.3,9.4-0.4,25.6,5.6,40.4c0,0,15,40.1,34.4,36c0,0,1.7-3.5-5.8-6.8
	c-7.1-3.2-27.9-13.2-25.5-57.8"/>
<path class="st1" d="M90.2,181.4c0.5-0.8,31.8-66.7,46.4-6.8l-9.6,0.8c-1.6-5.8-2.9-7.6-3.6-7.8c-1.7-0.5-10,13.3-10,13.3
	L90.2,181.4z"/>
<path class="st1" d="M201.1,176.9c0.1,5.6-4.4,10.2-9.9,10.3c-5.6,0.1-10.2-4.3-10.3-9.9c-0.1-5.6,4.3-10.2,9.9-10.3
	C196.4,166.9,201,171.3,201.1,176.9"/>
<path class="st1" d="M194.8,161.8c0,0.5-0.3,1-0.7,1.3c-0.2,0.2-0.5,0.2-0.8,0.2c-0.8,0-1.5-0.7-1.5-1.5c0-0.8,0.6-1.5,1.5-1.5
	C194.1,160.3,194.8,161,194.8,161.8"/>
<path class="st1" d="M198.8,163c-0.1,0.5-0.5,0.9-0.9,1.1c-0.3,0.1-0.5,0.1-0.8,0.1c-0.8-0.2-1.3-1-1.2-1.8c0.2-0.8,1-1.3,1.8-1.2
	C198.5,161.4,199,162.2,198.8,163"/>
<path class="st1" d="M202.5,165.9c-0.3,0.5-0.7,0.7-1.2,0.8c-0.3,0-0.6-0.1-0.8-0.2c-0.7-0.4-1-1.3-0.6-2.1c0.4-0.7,1.3-1,2.1-0.6
	C202.6,164.3,202.9,165.2,202.5,165.9"/>
<path class="st1" d="M205.1,169.8c-0.4,0.3-0.9,0.4-1.4,0.3c-0.3-0.1-0.5-0.2-0.7-0.5c-0.5-0.6-0.5-1.6,0.2-2.1
	c0.6-0.5,1.6-0.5,2.1,0.2C205.8,168.3,205.8,169.2,205.1,169.8"/>
<path class="st1" d="M206,175.2c-0.5,0.2-1,0.1-1.4-0.1c-0.2-0.2-0.4-0.4-0.5-0.6c-0.3-0.8,0-1.6,0.8-2c0.8-0.3,1.6,0,2,0.8
	C207.1,174,206.7,174.9,206,175.2"/>
<path class="st1" d="M206.3,179.9c-0.5,0.1-1-0.1-1.4-0.5c-0.2-0.2-0.3-0.5-0.3-0.8c-0.1-0.8,0.4-1.6,1.3-1.7
	c0.8-0.1,1.6,0.4,1.7,1.3C207.7,179,207.2,179.8,206.3,179.9"/>
<path class="st1" d="M205.2,183.1c-0.5,0-1-0.3-1.3-0.7c-0.1-0.2-0.2-0.5-0.2-0.8c0-0.8,0.7-1.5,1.5-1.5c0.8,0,1.5,0.7,1.5,1.5
	C206.7,182.5,206,183.1,205.2,183.1"/>
<path class="st1" d="M203.9,187.1c-0.5-0.1-0.9-0.5-1.1-1c-0.1-0.3-0.1-0.6-0.1-0.8c0.2-0.8,1-1.3,1.8-1.1c0.8,0.2,1.3,1,1.1,1.8
	C205.5,186.8,204.7,187.3,203.9,187.1"/>
<path class="st1" d="M201.8,189.6c-0.5-0.3-0.7-0.7-0.8-1.2c0-0.3,0.1-0.6,0.2-0.8c0.4-0.7,1.3-1,2-0.6c0.7,0.4,1,1.3,0.6,2
	C203.5,189.7,202.6,190,201.8,189.6"/>
<path class="st1" d="M198,192.2c-0.3-0.4-0.4-1-0.3-1.4c0.1-0.3,0.2-0.5,0.5-0.7c0.6-0.5,1.6-0.5,2.1,0.2c0.5,0.6,0.5,1.6-0.2,2.1
	C199.5,192.9,198.5,192.8,198,192.2"/>
<path class="st1" d="M193.8,193.7c-0.2-0.5-0.1-1,0.1-1.5c0.2-0.2,0.4-0.4,0.6-0.5c0.8-0.3,1.6,0,2,0.8c0.3,0.8,0,1.6-0.8,2
	C195,194.8,194.2,194.4,193.8,193.7"/>
<path class="st1" d="M189.1,194.1c-0.1-0.5,0.1-1,0.5-1.4c0.2-0.2,0.5-0.3,0.8-0.4c0.8-0.1,1.6,0.4,1.7,1.2c0.1,0.8-0.4,1.6-1.2,1.7
	C190,195.5,189.3,194.9,189.1,194.1"/>
<path class="st1" d="M184.2,192.2c0.1-0.5,0.4-1,0.8-1.2c0.2-0.1,0.5-0.2,0.8-0.1c0.8,0.1,1.4,0.8,1.3,1.6c-0.1,0.8-0.8,1.4-1.7,1.3
	C184.7,193.7,184.1,193,184.2,192.2"/>
<path class="st1" d="M180.4,190.5c0.2-0.5,0.6-0.9,1.1-1c0.3-0.1,0.6-0.1,0.8,0c0.8,0.3,1.2,1.1,0.9,1.9c-0.3,0.8-1.1,1.2-1.9,0.9
	C180.5,192.1,180.1,191.3,180.4,190.5"/>
<path class="st1" d="M177.1,187.1c0.3-0.4,0.8-0.6,1.3-0.6c0.3,0,0.5,0.1,0.8,0.3c0.7,0.5,0.8,1.4,0.3,2.1c-0.5,0.7-1.4,0.8-2.1,0.3
	C176.7,188.7,176.6,187.8,177.1,187.1"/>
<path class="st1" d="M174.9,183c0.5-0.3,1-0.3,1.5-0.1c0.2,0.1,0.5,0.3,0.6,0.5c0.4,0.7,0.2,1.6-0.4,2.1c-0.7,0.5-1.6,0.3-2.1-0.4
	C174.1,184.4,174.2,183.4,174.9,183"/>
<path class="st1" d="M174,178.6c0.5-0.1,1,0,1.4,0.3c0.2,0.2,0.4,0.4,0.4,0.7c0.2,0.8-0.2,1.6-1,1.9c-0.8,0.2-1.6-0.2-1.9-1
	C172.7,179.7,173.2,178.9,174,178.6"/>
<path class="st1" d="M174.1,173.9c0.5,0,1,0.2,1.3,0.7c0.2,0.2,0.3,0.5,0.3,0.8c0,0.8-0.6,1.5-1.4,1.6c-0.8,0-1.5-0.6-1.6-1.4
	C172.6,174.7,173.3,174,174.1,173.9"/>
<path class="st1" d="M176.2,169.2c0.5,0.1,0.9,0.5,1,1c0.1,0.3,0.1,0.5,0,0.8c-0.2,0.8-1,1.3-1.8,1.1c-0.8-0.2-1.3-1-1.1-1.8
	C174.6,169.5,175.5,169,176.2,169.2"/>
<path class="st1" d="M178.5,165.7c0.5,0.3,0.8,0.7,0.8,1.2c0,0.3,0,0.6-0.2,0.8c-0.4,0.7-1.3,1-2,0.6c-0.7-0.4-1-1.3-0.6-2
	C176.9,165.6,177.8,165.3,178.5,165.7"/>
<path class="st1" d="M182.3,162.9c0.4,0.4,0.5,0.9,0.4,1.4c-0.1,0.3-0.2,0.5-0.4,0.7c-0.6,0.6-1.5,0.6-2.1,0c-0.6-0.6-0.6-1.5,0-2.1
	C180.8,162.3,181.7,162.3,182.3,162.9"/>
<path class="st1" d="M186.7,161.5c0.2,0.5,0.2,1-0.1,1.4c-0.1,0.2-0.4,0.4-0.6,0.5c-0.8,0.4-1.6,0-2-0.7c-0.3-0.8,0-1.6,0.7-2
	C185.5,160.4,186.4,160.7,186.7,161.5"/>
<path class="st1" d="M191.2,161.1c0.1,0.5-0.1,1-0.5,1.4c-0.2,0.2-0.5,0.3-0.8,0.3c-0.8,0.1-1.6-0.4-1.7-1.3
	c-0.1-0.8,0.5-1.6,1.3-1.7C190.3,159.8,191.1,160.3,191.2,161.1"/>
<path class="st1" d="M195.8,162c-0.1,0.5-0.4,1-0.8,1.2c-0.3,0.1-0.5,0.2-0.8,0.1c-0.8-0.1-1.4-0.8-1.3-1.7c0.1-0.8,0.8-1.4,1.7-1.3
	C195.3,160.4,195.9,161.2,195.8,162"/>
</svg>
