<svg id="PM" xmlns="http://www.w3.org/2000/svg" viewBox="0 0 672.69 483.8"><defs><style>.cls-1{fill:#cea64e;}.cls-2{fill:#035472;}.cls-3{fill:none;stroke:#d2a84e;stroke-miterlimit:10;stroke-width:1.55px;}</style></defs><title>combined logos-pm</title><path class="cls-1" d="M285.73,181.9H240.87l-7.16,21.3c-1.81,5.35-2.81,10-2.81,13.78,0,6,2.18,10.24,6.53,12.87s10.51,3.9,18.4,3.9v2.45H196.64v-2.45c10.69,0,19-4.17,24.92-12.6,3.26-4.71,7.43-14.32,12.6-29L273.5,78.58h4.62l50.3,141.57c2.36,6.62,4.62,10.51,7,11.69s9.34,1.81,20.94,1.81v2.45H270.42v-2.45c11.69,0,19.67-.45,24-1.36s6.53-2.72,6.53-5.44l-0.45-2.45Zm-1.18-2.63-21.3-61.45L242,179.27h42.6Z"/><path class="cls-1" d="M461.74,236.19h-1.9q0-9.38-3-14.14c-2-3.17-4.53-4.71-7.52-4.71a19.16,19.16,0,0,0-13.23,4.8c-1.72,1.63-3.35,3.26-4.89,4.8-5.89,4.71-10.79,7.7-14.5,9.15s-9.15,2.18-16,2.18q-26.24,0-44.23-17.13-21.62-20.53-21.66-59.36,0-37.66,23.75-62.26c13.5-14,27.37-21,41.6-21,9.61,0,17.4,1.45,23.29,4.35,7.43,3.72,14.86,10.69,22.11,21l13.14-25.29v68.06h-2.08q-4.89-31.95-19.76-49.49c-9.34-10.88-20.3-16.31-32.81-16.31-12,0-21.39,6.8-28.28,20.48s-10.33,32.9-10.33,57.82q0,37.11,9.61,57.1c6.43,13.32,15.23,19.94,26.46,19.94,10.51,0,18.67-2.9,24.56-8.7s8.79-14.32,8.79-25.38V172.83c0-4.35-.27-7.07-0.73-8.25a5.15,5.15,0,0,0-3-2.63c-1.54-.63-4.71-1.18-9.43-1.72s-8.79-.73-12.24-0.73v-2.18h80.39v2.18a107.37,107.37,0,0,0-12.78,1c-5.17.63-8.61,1.09-10.33,1.45s-2.9.91-3.35,1.72c-0.91,1.63-1.45,4.71-1.45,9.15v63.35h-0.27Z"/><path class="cls-1" d="M527.36,155.43v64.62c0,4.53.27,7.34,0.73,8.52s1.9,2.18,4.44,3a27,27,0,0,0,8.61,1.54q4.89,0.27,17.4.27,26.51,0,40.06-16.31t17-52.39h3v71.6H467.27v-2.45c13.78,0,23-.91,27.46-2.63a6.18,6.18,0,0,0,3.17-2.54c0.54-1.09.82-3.81,0.82-8.34v-124c0-4.71-.27-7.61-0.91-8.7-0.27-.63-1.36-1.27-3-1.9s-5.17-1.27-10.51-1.9a142.56,142.56,0,0,0-17-1V80.66H611v60.27h-3A74.33,74.33,0,0,0,599,105.31c-8.07-15-19.4-22.57-34.17-22.57-5.89,0-11.78,0-17.76.09a55.76,55.76,0,0,0-15.86,2.27,5.82,5.82,0,0,0-2.9,2.54c-0.54,1.09-.82,3.9-0.82,8.61V152.8c16,0,26-1.72,29.91-5.08,5.89-5.17,10-18.94,12.24-41.51h2.81v95.07H569.6c-2.36-22-6.34-35.62-12.05-40.78C553.46,157.16,543.49,155.43,527.36,155.43Z"/><path class="cls-1" d="M233.44,313.68c1.27-7.34,3-13.23,5.35-17.58,3.9-6.89,9.24-10.69,16-11.51a27.4,27.4,0,0,0,3.63-.27,22.7,22.7,0,0,1,2.9-.27c9.61,0,17.22,3.08,22.93,9.15a26.11,26.11,0,0,1,7.16,18.4v64.17c0,3.08.27,5.08,0.73,6.07a4.45,4.45,0,0,0,2.18,1.72,25.26,25.26,0,0,0,6.25,1.18,62.48,62.48,0,0,0,7.61.45v2.18H253v-2.18a70.42,70.42,0,0,0,8.61-.36,19.38,19.38,0,0,0,6.53-2.27q1.36-1.22,1.36-6.8V314.4q0-11.42-1.9-17.67c-2-6.62-5.71-10-11.06-10s-10,2.72-13.59,8c-4.08,6-7.16,16.77-9.34,32.45v48.49c0,3.26.27,5.35,0.73,6.25a4.53,4.53,0,0,0,2.08,1.36,33.75,33.75,0,0,0,6,1.18,65.51,65.51,0,0,0,8.07.63v2.18H195V385.1c5.89,0,10.51-.54,13.78-1.72l1.63-.73q1.36-1.22,1.36-7.07V314.22q0-11.69-1.9-17.67c-2-6.62-5.71-10-11.15-10q-10.47,0-16.31,13.87c-2.63,6.43-4.71,15.68-6.25,27.64v47.49c0,3.26.27,5.35,0.73,6.25a4.94,4.94,0,0,0,2.18,1.45,25.27,25.27,0,0,0,6.25,1.18,62.48,62.48,0,0,0,7.61.45v2.18H134v-2.18c3.26,0,6.53-.18,9.88-0.45a41.12,41.12,0,0,0,9-1.9c0.91-.82,1.36-3.17,1.36-7V302.26c0-1.45,0-2.9-.09-4.35a6.39,6.39,0,0,0-1-3.35,7.71,7.71,0,0,0-2.81-2.9c-2.36-.82-7.7-1.18-16-1.18V288.3l42-4.08V315c1.09-7.7,2.72-13.78,4.89-18.31,3.63-7.34,8.88-11.42,16-12.24,1.54-.18,2.9-0.27,4.08-0.36s2.08-.09,2.72-0.09c10,0,17.58,2.9,22.66,8.61C231.08,298,233.44,305,233.44,313.68Z"/><path class="cls-1" d="M365.58,317.3v-14q0-9.65-3-13.05c-2-2.27-6.25-3.35-12.78-3.35a30,30,0,0,0-14,3.17c-4.08,2.18-6.71,5-7.89,8.61a8.41,8.41,0,0,1,2.36-.27,8.81,8.81,0,0,1,7.25,3.63,12.92,12.92,0,0,1,2.81,8.16,11.76,11.76,0,0,1-11.78,12.05,8.84,8.84,0,0,1-5.44-1.72c-4.53-3.08-6.8-6.89-6.8-11.6a26.08,26.08,0,0,1,1.36-7.7c2.18-6.25,7.61-10.88,16.31-13.78a59.21,59.21,0,0,1,18.85-3.17c11.51,0,20.21,2.27,26.1,6.71,5.26,4,7.89,9.06,7.89,15.14v53.38c0,9.61.27,15.59,0.73,17.76q1.63,8.16,8.43,8.16c4.08,0,6.71-2.18,8.16-6.53s2.08-10.51,2.08-18.67c0-2.27,0-4.44-.09-6.71s-0.09-4.53-.09-7v-2.18h2.81v10.6c0,3.35.09,6.62,0.27,9.61,0,9.34-1.09,15.59-3.26,18.85q-4.21,6-17.13,6c-6.71,0-11.69-1.18-15-3.63-3.9-2.9-6.53-7.7-7.7-14.59q-4.89,11.69-14.68,15.77c-3.9,1.54-9.06,2.36-15.59,2.36a30.3,30.3,0,0,1-17-4.8q-10.06-6.53-10.06-19.85a28.4,28.4,0,0,1,9.79-21.93,39.83,39.83,0,0,1,23.66-9.88c9.24-.82,15.5-2.08,18.76-3.9C364,327.36,365.58,323.37,365.58,317.3Zm-0.63,43.59V328.63a11.78,11.78,0,0,1-8.25,4.71c-3.63.54-7.16,1.09-10.6,1.54a17.16,17.16,0,0,0-10.69,7.79c-3.08,4.89-4.62,11.6-4.62,20.39q0,14,2.72,19a9,9,0,0,0,8.52,5c5.89,0,11.24-2.54,16-7.61A26.89,26.89,0,0,0,364.95,360.9Z"/><path class="cls-1" d="M433.47,410.11V302c0-1.63,0-3-.09-4.26a5.18,5.18,0,0,0-1.09-3,6.74,6.74,0,0,0-3.26-2.9c-2.81-.82-9.24-1.18-19.3-1.18v-2.18l45.68-4.08V396.06c0,10.6-4,20.21-11.87,28.73s-16.68,12.78-26.28,12.78c-5.89,0-10.88-1-14.86-3s-6.62-4.44-7.79-7.34a21.63,21.63,0,0,1-1.72-8.16c0-4.8,2.27-8.61,6.8-11.33a11.42,11.42,0,0,1,6.16-1.72,10.74,10.74,0,0,1,7.61,3.26,12.75,12.75,0,0,1,.27,17.13,11.76,11.76,0,0,1-8.7,3.26c1.54,2.72,2.81,4.26,3.9,4.8s3.35,0.73,6.71.73c5.71,0,10.15-1.9,13.32-5.62C431.92,425.79,433.47,419.35,433.47,410.11Z"/><path class="cls-1" d="M519.11,284.31v91.36c0,3.26.27,5.35,0.73,6.25a4.53,4.53,0,0,0,2.08,1.45c3.26,1.09,10.06,1.72,20.3,1.72v2.18h-68V385.1c4.53,0,8.61-.18,12.24-0.45a37.41,37.41,0,0,0,9.43-2q1.36-1.22,1.36-7.07V300.26c0-3.08-.27-5-0.91-5.8-1.09-1.63-2.08-2.63-3-2.9-2.81-.82-9.15-1.18-19.12-1.18v-2.18Z"/><path class="cls-1" d="M586.27,343.86v31.81c0,3.26.27,5.35,0.73,6.34a4.94,4.94,0,0,0,2.18,1.45,24.32,24.32,0,0,0,6.16,1.18,59.12,59.12,0,0,0,7.25.45v2.18H542.5V385.1c9.34,0,15.59-.54,18.85-1.72l1.63-.73c0.91-.82,1.45-3.17,1.45-7V246.52c0-3.26-.45-5.53-1.45-6.89s-1.81-2.18-2.54-2.27c-2.45-.82-8.43-1.18-17.67-1.18V234l43.59-4.08V339.69l29.36-30.45c4.62-4.71,7-8.88,7-12.69,0-3.08-1.63-5.53-4.89-7.16s-8.25-2.54-14.86-2.54V284.4h53.38v2.45q-8.84,0-13.87,2.72t-13.59,10.88l-14.41,14.77L644,376.67c1.72,3.53,3.81,5.89,6.43,6.89s6.8,1.54,12.69,1.54v2.18H606.3V385.1c5.17,0,9.06-.09,11.87-0.36s4.17-1.45,4.17-3.53c0-1-.63-2.72-1.9-5.35l-21.93-45Z"/><path class="cls-2" d="M7.95,81.57V69.24c24.92,0.91,44.77,1.36,59.27,1.36,9.7,0,20-.18,30.91-0.45l29.27-1.09c3.26-.18,6.25-0.18,9-0.18,19.76,0,35.26,2.27,46.59,6.8a55,55,0,0,1,26.46,21.48c6.34,9.88,9.52,21,9.52,33.72a79.07,79.07,0,0,1-7.89,33.81,76.79,76.79,0,0,1-23,28.46,98.29,98.29,0,0,1-31.54,16.68,83.86,83.86,0,0,1-25.38,3.44,133.85,133.85,0,0,1-25.74-2.72l-3.9-14.32q16.59,4.08,26.1,4.08a53.22,53.22,0,0,0,26.56-7.07c8.34-4.71,14.86-11.78,19.58-21.3a70.58,70.58,0,0,0,7-31.45,65.88,65.88,0,0,0-6.8-30.09A45.05,45.05,0,0,0,153.23,90c-9.24-4.62-20.48-7-33.62-7q-17.67,0-38.07,6.53-1.63,20.39-1.63,64.08v97.25q0,26.24.54,51.12,0.54,18.35,2.72,21.75a12.29,12.29,0,0,0,6.89,5.08c3.17,1.09,12.14,1.72,26.92,2v12.33c-23-.91-39.88-1.36-50.66-1.36-4.26,0-23.66.45-58.37,1.36V330.81c14.59-.27,23.47-0.91,26.65-2s5.44-2.63,6.71-4.53c1.45-2.54,2.45-8.79,2.81-18.67q0.27-4.08.91-54.74V161.6c0-17.49-.18-34.62-0.54-51.3-0.36-12.24-1.27-19.49-2.72-21.66a12.59,12.59,0,0,0-6.89-5C31.69,82.47,22.72,81.75,7.95,81.57Z"/><path class="cls-2" d="M11.66,63.35s54.92-4.62,108.85-44.23l8.61,9S59.06,62.08,11.66,63.35Z"/><path class="cls-2" d="M12.3,63.44s83-10.79,120.45-30.18L143.44,43S81.54,58.64,12.3,63.44Z"/><path class="cls-2" d="M13.84,63.17s110.75,5.71,140.48-3.08L144.71,48.4S77.92,64,13.84,63.17Z"/><path class="cls-1" d="M141.36,113.92l24.29-6.53L150,127.88l13.59,22-23.2-9.61-15.68,20.12,1.63-26.1-23.56-9.88,24.2-6.53,1.45-25.47Z"/><path class="cls-1" d="M183.59,51.12l15.5-4.44-9.88,13.23,9,14-15-5.89L173.35,81l0.73-16.77-15.14-6.07,15.41-4.44L175,37.43Z"/><path class="cls-1" d="M157.22,10.15l8.52-4.62-4.17,9.06,6.89,7.07L159,20.12,154.77,29l-1.54-9.88-9.61-1.63,8.52-4.62-1.63-9.61Z"/><path class="cls-2" d="M443.16,229.84a12.3,12.3,0,0,1,9.24,3.81,13.48,13.48,0,0,1,3.72,9.7,13.27,13.27,0,0,1-3.72,9.61,12.38,12.38,0,0,1-9.24,3.9,12.06,12.06,0,0,1-9.24-3.9,13.42,13.42,0,0,1-3.72-9.61,13.63,13.63,0,0,1,3.72-9.7A12.3,12.3,0,0,1,443.16,229.84Z"/><path class="cls-2" d="M141.81,450v29.64h-5V450h-7.7v-4.89h20.3V450h-7.61Z"/><path class="cls-2" d="M158.94,458.6h14.32v-13.5h5v34.53h-5V463.49H158.94v16.13h-5V445.09h5v13.5Z"/><path class="cls-2" d="M204.71,450H191.39v8.25h13v4.89h-13v11.51h13.32v4.89h-18.4V445h18.4v5Z"/><path class="cls-2" d="M230,465.58v14h-5V445.09h5.71a22.68,22.68,0,0,1,6.34.63,8.24,8.24,0,0,1,3.81,2.27,10,10,0,0,1,2.9,7.34,9.58,9.58,0,0,1-3.08,7.52,12,12,0,0,1-8.25,2.81H230v-0.09Zm0-4.8h1.9c4.62,0,6.89-1.81,6.89-5.53,0-3.53-2.36-5.35-7.16-5.35H230v10.88h0Z"/><path class="cls-2" d="M253.83,445.09v20.75q0,4.49,1.36,6.53a7.3,7.3,0,0,0,11.78,0c0.91-1.36,1.45-3.44,1.45-6.53V445.09h5v22.2a12.71,12.71,0,0,1-3.26,9,11.8,11.8,0,0,1-9.06,3.9,12.12,12.12,0,0,1-9.06-3.9,12.71,12.71,0,0,1-3.26-9v-22.2h5.08Z"/><path class="cls-2" d="M281.38,479.53V445h5a21.07,21.07,0,0,1,5.35.54,8,8,0,0,1,3.35,1.81,12.3,12.3,0,0,1,2.27,3.26,10.46,10.46,0,0,1,.82,4,8.31,8.31,0,0,1-2.72,6.25,7.91,7.91,0,0,1,4.17,3.26,9.81,9.81,0,0,1,1.54,5.44,9,9,0,0,1-2.81,6.8,8.65,8.65,0,0,1-3.72,2.36,20.68,20.68,0,0,1-5.71.63h-7.52v0.18Zm5.08-19.67H288a5.63,5.63,0,0,0,4.08-1.27,4.85,4.85,0,0,0,1.27-3.81,4.93,4.93,0,0,0-1.36-3.72,5.59,5.59,0,0,0-3.9-1.27h-1.81v10.06h0.18Zm0,14.77h3.08a7.62,7.62,0,0,0,5-1.36,5,5,0,0,0,1.72-3.81,4.88,4.88,0,0,0-1.63-3.72c-1.09-1-2.9-1.45-5.62-1.45h-2.54v10.33Z"/><path class="cls-2" d="M312.56,445.09v29.64h9.79v4.89H307.49V445.09h5.08Z"/><path class="cls-2" d="M332.14,445.09v34.53h-5V445.09h5Z"/><path class="cls-2" d="M359,450.17l-4.08,2.54a7.08,7.08,0,0,0-2.18-2.72,5.15,5.15,0,0,0-2.81-.73,5,5,0,0,0-3.44,1.27,3.93,3.93,0,0,0-1.36,3.08c0,1.72,1.18,3.08,3.63,4.08l3.35,1.45a13.15,13.15,0,0,1,5.89,4.17,9.45,9.45,0,0,1,1.9,6,10.65,10.65,0,0,1-3.08,7.89,10.4,10.4,0,0,1-7.61,3.17,10.25,10.25,0,0,1-7.16-2.63,12.18,12.18,0,0,1-3.44-7.52l5.08-1.18a10,10,0,0,0,1.18,4.17,5.23,5.23,0,0,0,4.53,2.27,5.13,5.13,0,0,0,3.9-1.63,5.91,5.91,0,0,0,1.54-4.17,5.84,5.84,0,0,0-.27-1.81,5,5,0,0,0-.82-1.54,6.63,6.63,0,0,0-1.45-1.27,12.3,12.3,0,0,0-2.18-1.18l-3.17-1.36c-4.53-2-6.8-4.89-6.8-8.79a8.6,8.6,0,0,1,2.9-6.53,10.25,10.25,0,0,1,7.16-2.63C353.8,444.37,356.79,446.36,359,450.17Z"/><path class="cls-2" d="M370.93,458.6h14.32v-13.5h5v34.53h-5V463.49H370.93v16.13h-5V445.09h5v13.5Z"/><path class="cls-2" d="M403.38,445.09v34.53h-5V445.09h5Z"/><path class="cls-2" d="M411.35,479.53v-36.8L435.64,469V445.09h5v36.62l-24.29-26.28v24.11h-5Z"/><path class="cls-2" d="M466.09,461.59h13.78v1.18a22.66,22.66,0,0,1-.91,6.89,15.44,15.44,0,0,1-14.68,10.6,15.89,15.89,0,0,1-12-5.26,17.59,17.59,0,0,1-5-12.6,17.94,17.94,0,0,1,5.08-12.78,16.38,16.38,0,0,1,12.33-5.26,17,17,0,0,1,7.34,1.63,21,21,0,0,1,6.34,5.35l-3.53,3.53c-2.72-3.81-6.07-5.62-10-5.62a11.79,11.79,0,0,0-8.88,3.81,13.59,13.59,0,0,0,.45,18.76,11.51,11.51,0,0,0,8.07,3.44,10.11,10.11,0,0,0,6.71-2.63,8.9,8.9,0,0,0,3.26-6.25h-8.34v-4.8h-0.09Z"/><path class="cls-2" d="M501.44,445.09l8.7,23,9.06-24.74,8.7,24.74,9.24-23h5.44l-15,36.71L519,457.33l-9,24.47-14.14-36.71h5.53Z"/><path class="cls-2" d="M551.65,445.09v34.53h-5V445.09h5Z"/><path class="cls-2" d="M565.43,474.64h16v4.89H557.18l16.31-29.64H559.81V445h21.93Z"/><path class="cls-2" d="M606.85,471.2H592.62l-3.72,8.34h-5.44L600,442.92l15.86,36.62h-5.53Zm-2-4.89-5-11.69L594.7,466.3h10.15Z"/><path class="cls-2" d="M631.32,464.85l10.33,14.68h-6.16l-9.52-14h-0.91v14.14h-5V445.09H626c4.44,0,7.61.82,9.52,2.54a9.55,9.55,0,0,1,3.26,7.52,9.75,9.75,0,0,1-2,6.25A9.27,9.27,0,0,1,631.32,464.85Zm-6.25-3.9h1.63c4.8,0,7.16-1.9,7.16-5.62,0-3.53-2.36-5.26-7-5.26h-1.81V461Z"/><path class="cls-2" d="M646.63,479.53V445h7a26.76,26.76,0,0,1,8,1,14.43,14.43,0,0,1,5.71,3.44,18.27,18.27,0,0,1-.18,25.65,16.26,16.26,0,0,1-5.62,3.44,24.64,24.64,0,0,1-7.79,1h-7.07Zm5-4.89h2.27a19.24,19.24,0,0,0,5.62-.73,13.58,13.58,0,0,0,4.08-2.45,12.08,12.08,0,0,0,3.72-9.15,12,12,0,0,0-3.72-9.24c-2.18-2.08-5.44-3.17-9.7-3.17h-2.27v24.74Z"/><line class="cls-3" x1="132.66" y1="428.51" x2="374.1" y2="428.51"/><line class="cls-3" x1="453.95" y1="428.51" x2="664.67" y2="428.51"/></svg>
