<?xml version="1.0" encoding="utf-8"?>
<!-- Generator: Adobe Illustrator 19.2.1, SVG Export Plug-In . SVG Version: 6.00 Build 0)  -->
<svg version="1.1" id="Layer_1" xmlns="http://www.w3.org/2000/svg" xmlns:xlink="http://www.w3.org/1999/xlink" x="0px" y="0px"
	 viewBox="0 0 87.8 91.8" style="enable-background:new 0 0 87.8 91.8;" xml:space="preserve">
<style type="text/css">
	.st0{fill:#688553;}
	.st1{fill:#FFFFFF;}
</style>
<rect class="st0" width="87.8" height="91.8"/>
<path class="st1" d="M47.9,9.9c2.6,0,4.6,0.6,6.2,1.7c1.6,1.1,2.3,2.6,2.3,4.4c0,2.2-0.5,5.3-1.5,9.2l-2.6,9.2
	c-1,3.7-1.5,6.1-1.4,7.4c0,1.6,0.6,2.5,1.8,2.6c0.5,0,2.4-0.9,5.5-2.8c3.2-1.9,6.5-4.1,10.1-6.5c4.2-2.9,7.6-4.3,10.1-4.3
	c2,0,3.8,1,5.2,3.1c1.4,2.1,2.2,4.6,2.2,7.4c0,4.7-4.4,7.1-13.2,7.1l-9.5,0.5c-6.2,0-9.4,1-9.5,2.9c-0.1,1.2,4.5,5.4,13.8,12.6
	c5.1,3.9,7.7,7,7.7,9.2c0,2.1-1.1,4.3-3.2,6.4c-2.2,2.1-4.3,3.2-6.5,3.2c-2.1,0-3.8-0.7-5.1-2.2c-1.3-1.5-2.8-4.3-4.3-8.5l-3.2-8.9
	c-2.1-5.5-3.7-8.3-5.1-8.3s-3,2.8-5.1,8.3l-3.4,8.9c-1.4,4.1-2.8,6.9-4.1,8.4c-1.3,1.5-2.8,2.3-4.7,2.3c-2.3,0-4.5-1-6.8-3.1
	c-2.3-2.1-3.4-4.2-3.4-6.4c0-2.3,2.6-5.5,7.7-9.4c9.2-7.1,13.8-11.2,13.8-12.6c0.1-0.8-0.7-1.5-2.5-2.1c-1.8-0.6-4.1-0.8-7-0.8
	l-9.5-0.5C14,48.5,9.6,46,9.6,41.1c0-2.8,0.7-5.2,2.2-7.3c1.4-2.1,3.1-3.1,5.1-3.1c2.7,0,6.1,1.5,10.3,4.4c4,2.8,6.6,4.6,8,5.4
	l6.4,3.5l1.1,0.5c1.3,0,2-1.1,2-3.4c0-1-0.5-3.2-1.4-6.6l-2.6-9.2c-1-3.8-1.5-6.8-1.5-9.1c0-1.8,0.8-3.3,2.4-4.5
	C43.1,10.5,45.2,9.9,47.9,9.9"/>
<path class="st1" d="M20.1,3.7c0.6,0,1.1,0.1,1.5,0.3c0.4,0.2,0.6,0.6,0.6,1c0,0.5,0,1.3-0.2,2.2l-0.5,2.2c-0.2,0.9-0.2,1.5-0.2,1.7
	c0,0.4,0.2,0.6,0.5,0.6c0.1,0,0.5-0.3,1.2-0.8c0.7-0.5,1.5-1.1,2.3-1.7c0.9-0.7,1.7-1.1,2.3-1.2c0.5,0,0.9,0.2,1.3,0.7
	c0.4,0.5,0.6,1,0.6,1.7c0.1,1.1-0.9,1.7-3,1.9l-2.2,0.3c-1.5,0.1-2.2,0.4-2.2,0.8c0,0.3,1.1,1.2,3.4,2.7c1.3,0.8,1.9,1.5,2,2
	c0,0.5-0.2,1-0.7,1.6c-0.5,0.5-1,0.8-1.5,0.9c-0.5,0-0.9-0.1-1.2-0.4c-0.3-0.3-0.7-1-1.2-1.9l-0.9-2c-0.6-1.3-1-1.9-1.3-1.9
	c-0.3,0-0.7,0.7-1.1,2l-0.7,2.1c-0.3,1-0.5,1.7-0.8,2c-0.3,0.4-0.6,0.6-1.1,0.6c-0.5,0-1.1-0.2-1.6-0.6c-0.6-0.5-0.9-0.9-0.9-1.4
	c0-0.6,0.5-1.3,1.6-2.3c2-1.8,3.1-2.9,3-3.2c0-0.2-0.2-0.3-0.6-0.4c-0.4-0.1-1-0.1-1.7-0.1l-2.2,0c-2.1,0.1-3.1-0.4-3.2-1.5
	c0-0.6,0.1-1.2,0.4-1.7c0.3-0.5,0.7-0.8,1.1-0.8c0.6,0,1.5,0.2,2.5,0.9c1,0.6,1.6,1,2,1.1l1.6,0.7l0.3,0.1c0.3,0,0.4-0.3,0.4-0.8
	c0-0.2-0.2-0.7-0.4-1.5l-0.8-2.1c-0.3-0.9-0.5-1.6-0.5-2.1c0-0.4,0.1-0.8,0.5-1.1C19,3.9,19.5,3.7,20.1,3.7"/>
</svg>
