<?xml version="1.0" encoding="UTF-8"?>
<svg width="26px" height="26px" viewBox="0 0 26 26" version="1.1" xmlns="http://www.w3.org/2000/svg" xmlns:xlink="http://www.w3.org/1999/xlink">
    <!-- Generator: sketchtool 48.2 (47327) - http://www.bohemiancoding.com/sketch -->
    <title>D29E957B-C906-444B-9F54-B6E34F105F18</title>
    <desc>Created with sketchtool.</desc>
    <defs></defs>
    <g id="Load-screen" stroke="none" stroke-width="1" fill="none" fill-rule="evenodd" transform="translate(-921.000000, -958.000000)">
        <g id="Powered-by" transform="translate(625.000000, 933.000000)">
            <g id="Logo" transform="translate(0.000000, 25.000000)">
                <g id="product-icons" transform="translate(226.000000, 0.000000)">
                    <g id="icon/easytype" transform="translate(70.000000, 0.000000)">
                        <path d="M12.9799,25.2561 C19.8869,25.2561 25.4859,19.6571 25.4859,12.7501 C25.4859,5.8431 19.8869,0.2441 12.9799,0.2441 C6.0729,0.2441 0.4739,5.8431 0.4739,12.7501 C0.4739,19.6571 6.0729,25.2561 12.9799,25.2561" id="Fill-260" fill="#F6BE52"></path>
                        <path d="M17.9894,5.8253 C18.0674,5.2533 18.2404,4.8293 18.5094,4.5523 C18.7774,4.2753 19.1414,4.1363 19.6004,4.1363 C20.0594,4.1363 20.4364,4.2993 20.7304,4.6233 C21.0244,4.9483 21.1724,5.3703 21.1724,5.8903 C21.1724,6.3923 21.0244,6.8803 20.7304,7.3513 C20.4364,7.8243 20.0074,8.2673 19.4444,8.6833 C18.9504,9.0473 18.4204,9.3283 17.8534,9.5283 C17.2854,9.7273 16.7424,9.8263 16.2224,9.8263 C15.9104,9.8263 15.5664,9.7793 15.1904,9.6833 C14.8134,9.5883 14.4124,9.4413 13.9884,9.2423 C13.6934,9.9093 13.4204,10.5153 13.1694,11.0603 C12.9184,11.6063 12.6764,12.1303 12.4424,12.6323 L12.2864,12.0093 C12.4594,11.5073 12.6384,11.0023 12.8254,10.4953 C13.0114,9.9893 13.2044,9.4843 13.4034,8.9823 C10.9954,7.4933 9.3714,6.5533 8.5324,6.1633 C7.6914,5.7733 7.0164,5.5783 6.5054,5.5783 C5.8384,5.5783 5.2604,5.8063 4.7714,6.2603 C4.2814,6.7153 4.0374,7.2503 4.0374,7.8653 C4.0374,8.0903 4.0954,8.3283 4.2124,8.5793 C4.3294,8.8313 4.5004,9.0903 4.7254,9.3593 C4.6384,9.6883 4.5044,9.9373 4.3224,10.1063 C4.1404,10.2743 3.9194,10.3593 3.6604,10.3593 C3.3654,10.3593 3.1254,10.2463 2.9394,10.0213 C2.7524,9.7963 2.6594,9.5013 2.6594,9.1383 C2.6594,8.6443 2.7894,8.1333 3.0494,7.6053 C3.3094,7.0773 3.6814,6.5703 4.1664,6.0853 C4.6604,5.5913 5.1714,5.2153 5.6994,4.9553 C6.2274,4.6953 6.7394,4.5653 7.2324,4.5653 C7.7174,4.5653 8.2414,4.6913 8.8044,4.9423 C9.3674,5.1933 9.9864,5.5833 10.6624,6.1113 L10.3374,5.2013 C10.6144,4.8383 10.9044,4.5693 11.2084,4.3963 C11.5114,4.2233 11.8534,4.1363 12.2344,4.1363 C12.8744,4.1363 13.4294,4.4023 13.8974,4.9353 C14.3654,5.4683 14.5984,6.1153 14.5984,6.8773 C14.5984,7.0943 14.5744,7.3343 14.5274,7.5983 C14.4794,7.8633 14.4084,8.1553 14.3124,8.4753 C14.8064,8.7093 15.2524,8.8823 15.6504,8.9953 C16.0494,9.1083 16.4084,9.1643 16.7294,9.1643 C17.3524,9.1643 17.8724,9.0043 18.2874,8.6833 C18.7034,8.3633 18.9114,7.9643 18.9114,7.4883 C18.9114,7.1943 18.8424,6.9213 18.7034,6.6693 C18.5654,6.4183 18.3274,6.1373 17.9894,5.8253 Z M12.4164,13.4253 C12.8314,12.6113 13.3184,12.0003 13.8774,11.5933 C14.4364,11.1863 15.0664,10.9833 15.7684,10.9833 C16.7034,10.9833 17.4734,11.3013 18.0804,11.9373 C18.6864,12.5743 18.9904,13.3903 18.9904,14.3863 C18.9904,15.2533 18.7344,16.0193 18.2234,16.6853 C17.7124,17.3533 16.8934,17.9763 15.7684,18.5563 C15.5854,18.6523 15.3134,18.7903 14.9494,18.9723 C13.3644,19.7523 12.5724,20.4753 12.5724,21.1413 C12.5724,21.5493 12.7234,21.8893 13.0264,22.1613 C13.3294,22.4343 13.7024,22.5713 14.1434,22.5713 C14.7324,22.5713 15.2114,22.3543 15.5794,21.9213 C15.9474,21.4883 16.1704,20.8823 16.2484,20.1023 C16.3864,19.9983 16.5234,19.9183 16.6584,19.8623 C16.7914,19.8063 16.9324,19.7783 17.0794,19.7783 C17.4004,19.7783 17.6714,19.8803 17.8924,20.0833 C18.1124,20.2873 18.2234,20.5313 18.2234,20.8173 C18.2234,21.4663 17.8184,22.0303 17.0084,22.5063 C16.1984,22.9823 15.2094,23.2203 14.0404,23.2203 C12.8974,23.2203 11.8274,23.0173 10.8314,22.6103 C9.8354,22.2033 8.9344,21.6053 8.1294,20.8173 C7.3324,20.0463 6.7214,19.1633 6.2974,18.1673 C5.8724,17.1713 5.6604,16.1233 5.6604,15.0233 C5.6604,13.5773 5.9984,12.4123 6.6744,11.5283 C7.3494,10.6453 8.2374,10.2033 9.3374,10.2033 C10.1424,10.2033 10.7704,10.4713 11.2204,11.0093 C11.6714,11.5463 11.9054,12.2993 11.9224,13.2693 L12.4164,13.4253 Z M13.6374,8.1503 C13.6804,7.9513 13.7154,7.7673 13.7414,7.5983 C13.7674,7.4293 13.7804,7.2893 13.7804,7.1763 C13.7804,6.5703 13.6224,6.0683 13.3064,5.6693 C12.9894,5.2713 12.5984,5.0723 12.1304,5.0723 C11.8704,5.0723 11.6584,5.1583 11.4934,5.3313 C11.3294,5.5053 11.2464,5.7303 11.2464,6.0073 C11.2464,6.3713 11.4424,6.7283 11.8314,7.0793 C12.2214,7.4293 12.8234,7.7873 13.6374,8.1503 Z" id="Fill-262" fill="#FFFFFE"></path>
                    </g>
                </g>
            </g>
        </g>
    </g>
</svg>