<?xml version="1.0" encoding="UTF-8"?>
<svg width="357px" height="48px" viewBox="0 0 357 48" version="1.1" xmlns="http://www.w3.org/2000/svg" xmlns:xlink="http://www.w3.org/1999/xlink">
    <!-- Generator: sketchtool 48.2 (47327) - http://www.bohemiancoding.com/sketch -->
    <title>295B29C5-A312-43F7-923C-CE466E5169E7</title>
    <desc>Created with sketchtool.</desc>
    <defs></defs>
    <g id="Log-in---First-time" stroke="none" stroke-width="1" fill="none" fill-rule="evenodd" transform="translate(-625.000000, -936.000000)">
        <g id="Powered-by" transform="translate(625.000000, 933.000000)">
            <text id="POWERED-BY" font-family="Lato-Regular, Lato" font-size="14" font-weight="normal" fill="#FFFFFF">
                <tspan x="0" y="14">POWERED BY</tspan>
            </text>
            <g id="Logo" transform="translate(0.000000, 25.000000)">
                <path d="M0,1.2582 L9.898,1.2582 C15.678,1.2582 19.173,4.6772 19.173,9.6152 L19.173,9.6842 C19.173,15.2772 14.812,18.1782 9.379,18.1782 L5.33,18.1782 L5.33,25.4292 L0,25.4292 L0,1.2582 Z M9.552,13.4482 C12.217,13.4482 13.774,11.8592 13.774,9.7872 L13.774,9.7182 C13.774,7.3352 12.113,6.0582 9.448,6.0582 L5.33,6.0582 L5.33,13.4482 L9.552,13.4482 Z" id="Fill-240" fill="#FFFFFE"></path>
                <path d="M29.8662,1.0859 L34.7802,1.0859 L45.1632,25.4299 L39.5912,25.4299 L37.3762,20.0079 L27.1322,20.0079 L24.9172,25.4299 L19.4832,25.4299 L29.8662,1.0859 Z M35.4732,15.3119 L32.2542,7.4739 L29.0352,15.3119 L35.4732,15.3119 Z" id="Fill-242" fill="#FFFFFE"></path>
                <path d="M47.134,13.4129 L47.134,13.3439 C47.134,6.4719 52.498,0.8439 59.836,0.8439 C64.196,0.8439 66.827,2.0179 69.353,4.1589 L65.996,8.1989 C64.127,6.6449 62.466,5.7479 59.662,5.7479 C55.786,5.7479 52.706,9.1659 52.706,13.2749 L52.706,13.3439 C52.706,17.7639 55.752,21.0099 60.043,21.0099 C61.981,21.0099 63.712,20.5259 65.061,19.5599 L65.061,16.1059 L59.697,16.1059 L59.697,11.5139 L70.218,11.5139 L70.218,22.0109 C67.726,24.1169 64.3,25.8439 59.87,25.8439 C52.325,25.8439 47.134,20.5609 47.134,13.4129" id="Fill-243" fill="#FFFFFE"></path>
                <polygon id="Fill-245" fill="#FFFFFE" points="76.5491 1.2582 94.8231 1.2582 94.8231 5.9892 81.8451 5.9892 81.8451 10.8922 93.2661 10.8922 93.2661 15.6232 81.8451 15.6232 81.8451 20.6992 94.9961 20.6992 94.9961 25.4292 76.5491 25.4292"></polygon>
                <polygon id="Fill-246" fill="#FFFFFE" points="101.4667 1.2582 107.2117 1.2582 113.5797 11.4792 119.9477 1.2582 125.6927 1.2582 125.6927 25.4292 120.3977 25.4292 120.3977 9.6492 113.5797 19.9732 113.4417 19.9732 106.6917 9.7532 106.6917 25.4292 101.4667 25.4292"></polygon>
                <path d="M140.6765,1.0859 L145.5905,1.0859 L155.9735,25.4299 L150.4015,25.4299 L148.1865,20.0079 L137.9425,20.0079 L135.7275,25.4299 L130.2935,25.4299 L140.6765,1.0859 Z M146.2835,15.3119 L143.0645,7.4739 L139.8455,15.3119 L146.2835,15.3119 Z" id="Fill-247" fill="#FFFFFE"></path>
                <path d="M156.5939,22.1492 L159.9509,18.4202 C161.3349,19.9392 162.6849,20.8372 164.3809,20.8372 C166.3879,20.8372 167.6339,19.6282 167.6339,16.8312 L167.6339,1.2582 L173.1019,1.2582 L173.1019,17.0732 C173.1019,19.9392 172.2719,22.0802 170.8179,23.5302 C169.3299,25.0152 167.1499,25.7752 164.5189,25.7752 C160.7469,25.7752 158.2549,24.1172 156.5939,22.1492" id="Fill-248" fill="#FFFFFE"></path>
                <polygon id="Fill-250" fill="#FFFFFE" points="180.507 25.429 185.837 25.429 185.837 1.258 180.507 1.258"></polygon>
                <polygon id="Fill-251" fill="#FFFFFE" points="193.6228 1.2582 198.9528 1.2582 198.9528 11.8252 208.7818 1.2582 215.2188 1.2582 205.3558 11.5142 215.6688 25.4292 209.2668 25.4292 201.7558 15.1402 198.9528 18.0402 198.9528 25.4292 193.6228 25.4292"></polygon>
                <g id="product-icons" transform="translate(226.000000, 0.000000)">
                    <g id="icon/wordsword">
                        <path d="M12.5059,25.256 C19.4129,25.256 25.0119,19.657 25.0119,12.75 C25.0119,5.843 19.4129,0.244 12.5059,0.244 C5.5989,0.244 -0.0001,5.843 -0.0001,12.75 C-0.0001,19.657 5.5989,25.256 12.5059,25.256" id="Fill-252" fill="#6882B4"></path>
                        <path d="M12.6751,25.2607 L12.0401,25.2607 L12.0271,22.7627 C12.0271,21.0707 11.9351,19.6147 11.7511,18.3957 C11.5651,17.1767 11.2171,15.7487 10.7021,14.1117 C11.1791,13.3937 11.5191,12.7367 11.7171,12.1387 C11.9141,11.5407 12.0451,10.7857 12.1101,9.8757 C11.5651,9.9117 11.1481,9.9677 10.8541,10.0407 C10.5591,10.1147 10.0121,10.2947 9.2121,10.5797 C8.6231,10.7817 8.1771,10.8827 7.8731,10.8827 C7.5141,10.8827 7.2221,10.7607 6.9961,10.5167 C6.7721,10.2727 6.6591,9.9577 6.6591,9.5717 C6.6591,9.1947 6.7781,8.8747 7.0181,8.6127 C7.2561,8.3507 7.5421,8.2197 7.8731,8.2197 C8.1121,8.2197 8.3331,8.2557 8.5351,8.3297 L9.4181,8.6607 C9.6111,8.7347 10.0301,8.8677 10.6741,9.0607 C11.1071,9.1807 11.5851,9.2677 12.1101,9.3227 C12.0641,8.8637 12.0221,8.5227 11.9861,8.3017 C11.9491,8.0807 11.8751,7.7777 11.7641,7.3917 C11.5981,6.7837 11.4371,6.2317 11.2801,5.7357 C11.0891,5.1377 10.9711,4.7507 10.9301,4.5767 C10.8891,4.4017 10.8681,4.2267 10.8681,4.0517 C10.8681,3.6107 11.0071,3.2467 11.2891,2.9617 C11.5701,2.6767 11.9251,2.5337 12.3571,2.5337 C12.7811,2.5337 13.1321,2.6767 13.4141,2.9617 C13.6941,3.2467 13.8341,3.6007 13.8341,4.0247 L13.4201,5.7357 C13.2641,6.2237 13.1031,6.7757 12.9381,7.3917 C12.8271,7.7877 12.7541,8.0927 12.7161,8.3097 C12.6801,8.5257 12.6381,8.8637 12.5921,9.3227 C13.1171,9.2677 13.5941,9.1807 14.0271,9.0607 C14.6821,8.8677 15.0991,8.7347 15.2831,8.6607 L16.1671,8.3297 C16.3681,8.2557 16.5751,8.2197 16.7881,8.2197 C17.1461,8.2197 17.4441,8.3487 17.6841,8.6057 C17.9241,8.8637 18.0431,9.1847 18.0431,9.5717 C18.0431,9.9577 17.9331,10.2727 17.7111,10.5167 C17.4911,10.7607 17.2061,10.8827 16.8561,10.8827 C16.5341,10.8827 16.0791,10.7817 15.4911,10.5797 C14.6901,10.2947 14.1451,10.1147 13.8551,10.0407 C13.5651,9.9677 13.1441,9.9117 12.5921,9.8757 C12.6301,10.4547 12.6871,10.9287 12.7651,11.2967 C12.8431,11.6647 12.9791,12.0877 13.1721,12.5657 C13.3831,13.0807 13.6591,13.5967 14.0001,14.1117 C13.4931,15.7487 13.1471,17.1767 12.9581,18.3957 C12.7691,19.6147 12.6751,21.0707 12.6751,22.7627 L12.6751,25.2607 Z" id="Fill-254" fill="#FFFFFE"></path>
                    </g>
                    <g id="icon/stylefinder" transform="translate(35.000000, 0.000000)">
                        <path d="M12.7429,25.256 C19.6499,25.256 25.2489,19.657 25.2489,12.75 C25.2489,5.843 19.6499,0.244 12.7429,0.244 C5.8359,0.244 0.2369,5.843 0.2369,12.75 C0.2369,19.657 5.8359,25.256 12.7429,25.256" id="Fill-256" fill="#EA908D"></path>
                        <path d="M16.8063,17.3245 C17.3613,18.0985 17.6383,18.8845 17.6383,19.6855 C17.6383,20.3035 17.4693,20.9315 17.1333,21.5685 C16.6853,22.3955 16.0623,23.0425 15.2613,23.5055 C14.4593,23.9695 13.5623,24.2015 12.5693,24.2015 C11.8493,24.2015 11.1523,24.0825 10.4773,23.8455 C9.8043,23.6105 9.2483,23.2915 8.8123,22.8915 C8.4743,22.5735 8.2083,22.2025 8.0113,21.7795 C7.8163,21.3565 7.7183,20.9355 7.7183,20.5175 C7.7183,20.1175 7.8303,19.7965 8.0553,19.5555 C8.2803,19.3145 8.5743,19.1935 8.9413,19.1935 C9.2803,19.1935 9.5593,19.3075 9.7793,19.5345 C9.9963,19.7625 10.1063,20.0445 10.1063,20.3805 C10.1063,20.6085 10.0563,20.8125 9.9553,20.9945 L9.6973,21.4315 C9.5873,21.6225 9.5333,21.8225 9.5333,22.0315 C9.5333,22.5135 9.8483,22.9355 10.4793,23.2935 C11.1103,23.6535 11.8523,23.8325 12.7053,23.8325 C13.6773,23.8325 14.4463,23.5745 15.0133,23.0555 C15.5813,22.5365 15.8653,21.8315 15.8653,20.9405 C15.8653,20.2305 15.6463,19.5715 15.2093,18.9615 C14.7733,18.3525 14.0363,17.6795 12.9983,16.9415 L9.9553,14.7725 C9.1643,14.1995 8.5943,13.6515 8.2443,13.1285 C7.8923,12.6055 7.7183,12.0295 7.7183,11.4015 C7.7183,10.6745 7.9683,10.0245 8.4683,9.4505 C8.6773,9.2145 9.0513,8.8735 9.5873,8.4275 C9.0333,7.6085 8.7553,6.7635 8.7553,5.8895 C8.7553,4.6885 9.1933,3.7035 10.0673,2.9355 C10.9423,2.1665 12.0573,1.7815 13.4163,1.7815 C14.1073,1.7815 14.7753,1.8895 15.4183,2.1025 C16.0593,2.3165 16.5813,2.6095 16.9813,2.9835 C17.5203,3.4655 17.7893,3.9965 17.7893,4.5795 C17.7893,4.9075 17.6793,5.1845 17.4613,5.4115 C17.2423,5.6395 16.9743,5.7535 16.6563,5.7535 C16.3553,5.7535 16.1053,5.6555 15.9053,5.4595 C15.7053,5.2645 15.6053,5.0165 15.6053,4.7165 C15.6053,4.5705 15.6233,4.4335 15.6593,4.3065 L15.7963,3.8695 C15.8143,3.7795 15.8233,3.6695 15.8233,3.5425 C15.8233,3.1155 15.6093,2.7765 15.1823,2.5255 C14.7553,2.2755 14.1683,2.1505 13.4223,2.1505 C12.4853,2.1505 11.7393,2.3845 11.1843,2.8535 C10.6293,3.3215 10.3513,3.9475 10.3513,4.7295 C10.3513,5.2945 10.5173,5.8555 10.8503,6.4155 C11.1823,6.9745 11.6563,7.4905 12.2763,7.9635 L13.1893,8.6595 L15.9463,10.7335 L16.7383,11.3065 C17.2933,11.7245 17.7223,12.2115 18.0273,12.7665 C18.3323,13.3215 18.4853,13.8945 18.4853,14.4855 C18.4853,15.0315 18.3863,15.4705 18.1923,15.8025 C17.9953,16.1355 17.5333,16.6425 16.8063,17.3245 M16.5743,16.9965 C16.7463,16.5785 16.8333,16.1555 16.8333,15.7275 C16.8333,14.6905 16.3973,13.8445 15.5233,13.1895 L14.8963,12.7385 L11.9753,10.5425 L11.2793,10.0245 C10.6523,9.5595 10.1423,9.1055 9.7513,8.6595 C9.5933,8.9865 9.4833,9.2605 9.4203,9.4775 C9.3593,9.6965 9.3283,9.9375 9.3283,10.2015 C9.3283,10.7025 9.4493,11.1295 9.6893,11.4845 C9.9313,11.8385 10.3753,12.2575 11.0203,12.7385 L14.0503,14.9495 L14.7863,15.4825 C15.3323,15.8825 15.9283,16.3875 16.5743,16.9965" id="Fill-258" fill="#FFFFFE"></path>
                    </g>
                    <g id="icon/easytype" transform="translate(70.000000, 0.000000)">
                        <path d="M12.9799,25.2561 C19.8869,25.2561 25.4859,19.6571 25.4859,12.7501 C25.4859,5.8431 19.8869,0.2441 12.9799,0.2441 C6.0729,0.2441 0.4739,5.8431 0.4739,12.7501 C0.4739,19.6571 6.0729,25.2561 12.9799,25.2561" id="Fill-260" fill="#F6BE52"></path>
                        <path d="M17.9894,5.8253 C18.0674,5.2533 18.2404,4.8293 18.5094,4.5523 C18.7774,4.2753 19.1414,4.1363 19.6004,4.1363 C20.0594,4.1363 20.4364,4.2993 20.7304,4.6233 C21.0244,4.9483 21.1724,5.3703 21.1724,5.8903 C21.1724,6.3923 21.0244,6.8803 20.7304,7.3513 C20.4364,7.8243 20.0074,8.2673 19.4444,8.6833 C18.9504,9.0473 18.4204,9.3283 17.8534,9.5283 C17.2854,9.7273 16.7424,9.8263 16.2224,9.8263 C15.9104,9.8263 15.5664,9.7793 15.1904,9.6833 C14.8134,9.5883 14.4124,9.4413 13.9884,9.2423 C13.6934,9.9093 13.4204,10.5153 13.1694,11.0603 C12.9184,11.6063 12.6764,12.1303 12.4424,12.6323 L12.2864,12.0093 C12.4594,11.5073 12.6384,11.0023 12.8254,10.4953 C13.0114,9.9893 13.2044,9.4843 13.4034,8.9823 C10.9954,7.4933 9.3714,6.5533 8.5324,6.1633 C7.6914,5.7733 7.0164,5.5783 6.5054,5.5783 C5.8384,5.5783 5.2604,5.8063 4.7714,6.2603 C4.2814,6.7153 4.0374,7.2503 4.0374,7.8653 C4.0374,8.0903 4.0954,8.3283 4.2124,8.5793 C4.3294,8.8313 4.5004,9.0903 4.7254,9.3593 C4.6384,9.6883 4.5044,9.9373 4.3224,10.1063 C4.1404,10.2743 3.9194,10.3593 3.6604,10.3593 C3.3654,10.3593 3.1254,10.2463 2.9394,10.0213 C2.7524,9.7963 2.6594,9.5013 2.6594,9.1383 C2.6594,8.6443 2.7894,8.1333 3.0494,7.6053 C3.3094,7.0773 3.6814,6.5703 4.1664,6.0853 C4.6604,5.5913 5.1714,5.2153 5.6994,4.9553 C6.2274,4.6953 6.7394,4.5653 7.2324,4.5653 C7.7174,4.5653 8.2414,4.6913 8.8044,4.9423 C9.3674,5.1933 9.9864,5.5833 10.6624,6.1113 L10.3374,5.2013 C10.6144,4.8383 10.9044,4.5693 11.2084,4.3963 C11.5114,4.2233 11.8534,4.1363 12.2344,4.1363 C12.8744,4.1363 13.4294,4.4023 13.8974,4.9353 C14.3654,5.4683 14.5984,6.1153 14.5984,6.8773 C14.5984,7.0943 14.5744,7.3343 14.5274,7.5983 C14.4794,7.8633 14.4084,8.1553 14.3124,8.4753 C14.8064,8.7093 15.2524,8.8823 15.6504,8.9953 C16.0494,9.1083 16.4084,9.1643 16.7294,9.1643 C17.3524,9.1643 17.8724,9.0043 18.2874,8.6833 C18.7034,8.3633 18.9114,7.9643 18.9114,7.4883 C18.9114,7.1943 18.8424,6.9213 18.7034,6.6693 C18.5654,6.4183 18.3274,6.1373 17.9894,5.8253 Z M12.4164,13.4253 C12.8314,12.6113 13.3184,12.0003 13.8774,11.5933 C14.4364,11.1863 15.0664,10.9833 15.7684,10.9833 C16.7034,10.9833 17.4734,11.3013 18.0804,11.9373 C18.6864,12.5743 18.9904,13.3903 18.9904,14.3863 C18.9904,15.2533 18.7344,16.0193 18.2234,16.6853 C17.7124,17.3533 16.8934,17.9763 15.7684,18.5563 C15.5854,18.6523 15.3134,18.7903 14.9494,18.9723 C13.3644,19.7523 12.5724,20.4753 12.5724,21.1413 C12.5724,21.5493 12.7234,21.8893 13.0264,22.1613 C13.3294,22.4343 13.7024,22.5713 14.1434,22.5713 C14.7324,22.5713 15.2114,22.3543 15.5794,21.9213 C15.9474,21.4883 16.1704,20.8823 16.2484,20.1023 C16.3864,19.9983 16.5234,19.9183 16.6584,19.8623 C16.7914,19.8063 16.9324,19.7783 17.0794,19.7783 C17.4004,19.7783 17.6714,19.8803 17.8924,20.0833 C18.1124,20.2873 18.2234,20.5313 18.2234,20.8173 C18.2234,21.4663 17.8184,22.0303 17.0084,22.5063 C16.1984,22.9823 15.2094,23.2203 14.0404,23.2203 C12.8974,23.2203 11.8274,23.0173 10.8314,22.6103 C9.8354,22.2033 8.9344,21.6053 8.1294,20.8173 C7.3324,20.0463 6.7214,19.1633 6.2974,18.1673 C5.8724,17.1713 5.6604,16.1233 5.6604,15.0233 C5.6604,13.5773 5.9984,12.4123 6.6744,11.5283 C7.3494,10.6453 8.2374,10.2033 9.3374,10.2033 C10.1424,10.2033 10.7704,10.4713 11.2204,11.0093 C11.6714,11.5463 11.9054,12.2993 11.9224,13.2693 L12.4164,13.4253 Z M13.6374,8.1503 C13.6804,7.9513 13.7154,7.7673 13.7414,7.5983 C13.7674,7.4293 13.7804,7.2893 13.7804,7.1763 C13.7804,6.5703 13.6224,6.0683 13.3064,5.6693 C12.9894,5.2713 12.5984,5.0723 12.1304,5.0723 C11.8704,5.0723 11.6584,5.1583 11.4934,5.3313 C11.3294,5.5053 11.2464,5.7303 11.2464,6.0073 C11.2464,6.3713 11.4424,6.7283 11.8314,7.0793 C12.2214,7.4293 12.8234,7.7873 13.6374,8.1503 Z" id="Fill-262" fill="#FFFFFE"></path>
                    </g>
                    <g id="icon/wyciwig" transform="translate(105.000000, 0.000000)">
                        <path d="M13.2169,25.2557 C20.1239,25.2557 25.7229,19.6567 25.7229,12.7497 C25.7229,5.8427 20.1239,0.2437 13.2169,0.2437 C6.3099,0.2437 0.7109,5.8427 0.7109,12.7497 C0.7109,19.6567 6.3099,25.2557 13.2169,25.2557" id="Fill-264" fill="#688351"></path>
                        <path d="M13.5357,2.9048 C14.2367,2.9048 14.7967,3.0578 15.2177,3.3628 C15.6387,3.6698 15.8497,4.0718 15.8497,4.5718 C15.8497,5.1838 15.7097,6.0178 15.4327,7.0738 L14.7227,9.5758 C14.4457,10.5758 14.3217,11.2438 14.3477,11.5768 C14.3477,12.0218 14.5147,12.2588 14.8487,12.2858 C14.9867,12.2858 15.4877,12.0288 16.3487,11.5148 C17.2117,10.9998 18.1277,10.4098 19.1007,9.7418 C20.2407,8.9648 21.1577,8.5758 21.8537,8.5758 C22.4087,8.5758 22.8817,8.8608 23.2707,9.4298 C23.6607,9.9998 23.8557,10.6738 23.8557,11.4518 C23.8557,12.7318 22.6587,13.3708 20.2687,13.3708 L17.6827,13.4958 C15.9877,13.4958 15.1277,13.7588 15.0997,14.2878 C15.0717,14.6208 16.3217,15.7608 18.8507,17.7058 C20.2407,18.7628 20.9367,19.5978 20.9367,20.2078 C20.9367,20.7918 20.6437,21.3758 20.0587,21.9588 C19.4717,22.5438 18.8877,22.8348 18.3027,22.8348 C17.7437,22.8348 17.2837,22.6328 16.9217,22.2308 C16.5607,21.8278 16.1697,21.0568 15.7517,19.9158 L14.8727,17.4988 C14.3157,15.9968 13.8557,15.2468 13.4937,15.2468 C13.1317,15.2468 12.6717,15.9968 12.1137,17.4988 L11.1937,19.9158 C10.8027,21.0288 10.4327,21.7928 10.0857,22.2088 C9.7377,22.6268 9.3117,22.8348 8.8107,22.8348 C8.1977,22.8348 7.5827,22.5498 6.9717,21.9798 C6.3567,21.4108 6.0517,20.8338 6.0517,20.2498 C6.0517,19.6108 6.7457,18.7628 8.1357,17.7058 C10.6377,15.7888 11.8887,14.6488 11.8887,14.2878 C11.9167,14.0648 11.6857,13.8778 11.1997,13.7248 C10.7127,13.5718 10.0817,13.4958 9.3037,13.4958 L6.7177,13.3708 C4.3277,13.3708 3.1317,12.7028 3.1317,11.3688 C3.1317,10.6178 3.3267,9.9578 3.7157,9.3878 C4.1047,8.8188 4.5637,8.5328 5.0917,8.5328 C5.8147,8.5328 6.7457,8.9368 7.8857,9.7418 C8.9697,10.4938 9.6917,10.9798 10.0537,11.2018 L11.8047,12.1608 L12.0967,12.2858 C12.4577,12.2858 12.6397,11.9808 12.6397,11.3688 C12.6397,11.0918 12.5137,10.4938 12.2637,9.5758 L11.5547,7.0738 C11.2767,6.0458 11.1377,5.2258 11.1377,4.6138 C11.1377,4.1138 11.3547,3.7038 11.7907,3.3838 C12.2237,3.0648 12.8057,2.9048 13.5357,2.9048" id="Fill-266" fill="#FFFFFE"></path>
                        <path d="M7.646,2.5204 C7.81,2.5084 7.944,2.5364 8.048,2.6014 C8.152,2.6664 8.208,2.7574 8.216,2.8744 C8.226,3.0174 8.206,3.2154 8.158,3.4684 L8.032,4.0664 C7.983,4.3064 7.965,4.4644 7.977,4.5414 C7.984,4.6474 8.026,4.6994 8.105,4.7004 C8.138,4.6984 8.251,4.6294 8.445,4.4954 C8.638,4.3604 8.845,4.2074 9.063,4.0344 C9.317,3.8344 9.526,3.7284 9.689,3.7174 C9.82,3.7084 9.934,3.7674 10.035,3.8944 C10.136,4.0214 10.192,4.1774 10.204,4.3594 C10.226,4.6594 9.955,4.8284 9.394,4.8674 L8.79,4.9384 C8.392,4.9654 8.194,5.0424 8.196,5.1664 C8.194,5.2444 8.507,5.4924 9.131,5.9074 C9.475,6.1334 9.651,6.3174 9.661,6.4604 C9.67,6.5984 9.611,6.7394 9.483,6.8854 C9.355,7.0324 9.223,7.1104 9.085,7.1194 C8.955,7.1284 8.843,7.0884 8.752,7.0004 C8.66,6.9114 8.556,6.7364 8.439,6.4754 L8.194,5.9224 C8.04,5.5804 7.92,5.4104 7.835,5.4164 C7.75,5.4224 7.653,5.6064 7.547,5.9674 L7.37,6.5494 C7.297,6.8164 7.222,7.0024 7.147,7.1054 C7.072,7.2084 6.977,7.2644 6.858,7.2724 C6.715,7.2824 6.566,7.2254 6.413,7.1014 C6.26,6.9774 6.178,6.8464 6.17,6.7104 C6.159,6.5594 6.308,6.3504 6.617,6.0794 C7.174,5.5894 7.448,5.3024 7.442,5.2174 C7.445,5.1654 7.388,5.1244 7.273,5.0964 C7.157,5.0684 7.007,5.0604 6.824,5.0734 L6.214,5.0854 C5.654,5.1234 5.363,4.9864 5.342,4.6734 C5.33,4.4974 5.365,4.3394 5.447,4.1994 C5.529,4.0594 5.632,3.9854 5.756,3.9774 C5.926,3.9654 6.15,4.0454 6.43,4.2154 C6.697,4.3744 6.874,4.4774 6.962,4.5234 L7.388,4.7204 L7.46,4.7444 C7.544,4.7384 7.581,4.6634 7.572,4.5204 C7.568,4.4554 7.528,4.3174 7.455,4.1064 L7.248,3.5304 C7.167,3.2944 7.121,3.1034 7.112,2.9594 C7.102,2.8424 7.147,2.7424 7.245,2.6614 C7.341,2.5794 7.475,2.5324 7.646,2.5204" id="Fill-268" fill="#FFFFFE"></path>
                    </g>
                </g>
            </g>
        </g>
    </g>
</svg>